<?xml version="1.0" encoding="UTF-8"?>
<svg id="Layer_1" data-name="Layer 1" xmlns="http://www.w3.org/2000/svg" xmlns:xlink="http://www.w3.org/1999/xlink" viewBox="0 0 322.88 442.23">
  <defs>
    <style>
      .cls-1 {
        fill: #662e88;
      }

      .cls-2 {
        clip-path: url(#clippath);
      }

      .cls-3 {
        fill: #652e87;
      }

      .cls-4 {
        fill: none;
      }
    </style>
    <clipPath id="clippath">
      <rect class="cls-4" x=".02" width="322.86" height="442.23"/>
    </clipPath>
  </defs>
  <g class="cls-2">
    <path class="cls-1" d="m161.66,296.09l5.4-5.4c-1.81-5.95-.33-12.68,4.44-17.3,3.19-3.1,7.31-4.72,11.44-4.82,2.69-.33,5.44-.01,8,.92l-12.32,11.97,9.24,9.47,12.3-11.97c.86,2.61,1.1,5.36.68,8.04-.22,4.13-1.96,8.18-5.15,11.28-4.78,4.64-11.53,5.94-17.42,3.95l-5.66,5.67-17.21,17.21-6.22,6.21c.83,4.36-.44,9.06-3.82,12.45-5.44,5.44-14.25,5.44-19.68,0-5.44-5.45-5.44-14.25,0-19.68,3.24-3.25,7.67-4.51,11.88-3.89l6.9-6.9,17.21-17.2Z"/>
    <path class="cls-1" d="m144.47,313.3l-19-20.49c-.35-.32-.63-.7-.76-1.18l-5.03-19.89c-.24-.86.03-1.73.64-2.34l.03-.02c.65-.57,1.54-.76,2.37-.49l19.46,6.53c.47.17.84.49,1.12.86l18.38,19.82,10.95,11.81,19.48,21.01c2.36,2.56,2.3,6.46-.15,8.75l-8.92,8.25c-2.45,2.31-6.38,2.09-8.77-.47l-18.85-20.34-10.95-11.81Z"/>
    <path class="cls-1" d="m225.11,284.92c-2.86,0-5.18-2.31-5.18-5.18s2.32-5.18,5.18-5.18,5.18,2.31,5.18,5.18-2.32,5.18-5.18,5.18"/>
    <path class="cls-1" d="m211.15,259.38c-2.86,0-5.18-2.31-5.18-5.18s2.31-5.18,5.18-5.18,5.18,2.31,5.18,5.18-2.33,5.18-5.18,5.18"/>
    <path class="cls-1" d="m112.19,257.32c-2.86,0-5.18-2.31-5.18-5.18s2.32-5.18,5.18-5.18,5.18,2.31,5.18,5.18-2.32,5.18-5.18,5.18"/>
    <path class="cls-1" d="m95.41,272.01c2.86,0,5.18,2.31,5.18,5.18s-2.31,5.18-5.18,5.18-5.18-2.31-5.18-5.18,2.32-5.18,5.18-5.18"/>
    <path class="cls-1" d="m99.71,316.38c-.83.14-1.67.17-2.5.04l-1.81,2.93-2.69-1.04.72-3.38c-.69-.49-1.29-1.07-1.79-1.73l-3.37.79-1.15-2.65,2.9-1.88c-.13-.82-.15-1.65-.04-2.5l-2.97-1.76,1.06-2.69,3.41.7c.49-.7,1.08-1.3,1.73-1.8l-.86-3.37,2.66-1.15,1.92,2.9c.81-.13,1.64-.14,2.48-.04l1.79-3,2.69,1.05-.71,3.43c.68.49,1.28,1.06,1.79,1.72l3.38-.86,1.16,2.66-2.92,1.91c.14.83.16,1.66.06,2.49l2.95,1.81-1.06,2.7-3.39-.73c-.49.7-1.07,1.3-1.73,1.81l.8,3.35-2.65,1.15-1.88-2.9Z"/>
    <path class="cls-1" d="m107.01,346.03c-2.85,0-5.18-2.31-5.18-5.17s2.32-5.18,5.18-5.18,5.18,2.31,5.18,5.18-2.31,5.17-5.18,5.17"/>
    <path class="cls-1" d="m125.36,369.57c-2.85,0-5.18-2.31-5.18-5.18s2.32-5.18,5.18-5.18,5.18,2.31,5.18,5.18-2.31,5.18-5.18,5.18"/>
    <path class="cls-1" d="m75.28,120.61c-.62-3.89.35-7.65,2.34-10.73l-11.61-11.62c-4.45,5.44-7.12,12.38-7.12,19.94s2.68,14.51,7.13,19.95l11.59-11.58c-1.14-1.77-1.97-3.76-2.32-5.96"/>
    <path class="cls-1" d="m110.4,142.63l-11.6-11.58c-1.78,1.16-3.79,1.97-5.95,2.31-.81.13-1.63.2-2.43.2-3.08,0-5.93-.93-8.35-2.5l-11.57,11.57c5.44,4.45,12.39,7.13,19.95,7.13s14.51-2.68,19.96-7.13"/>
    <path class="cls-1" d="m230.02,86.64c-9.6,0-18.2,4.32-24,11.1h47.98c-5.79-6.78-14.39-11.1-23.98-11.1"/>
    <path class="cls-1" d="m88.04,103.04c3.98-.63,7.72.33,10.76,2.31l11.59-11.58c-5.45-4.45-12.39-7.13-19.96-7.13s-14.51,2.68-19.95,7.13l11.58,11.59c1.76-1.15,3.76-1.98,5.97-2.33"/>
    <path class="cls-1" d="m105.6,115.81c.6,3.78-.26,7.55-2.34,10.74l11.62,11.6c4.45-5.44,7.13-12.39,7.13-19.95s-2.68-14.5-7.13-19.94l-11.59,11.57c1.14,1.76,1.96,3.77,2.31,5.98"/>
    <path class="cls-1" d="m90.45,109.18c-.47,0-.94.04-1.41.12-4.91.78-8.27,5.41-7.5,10.32.75,4.8,5.38,8.28,10.31,7.49,2.38-.38,4.48-1.67,5.89-3.62,1.41-1.94,1.98-4.32,1.6-6.69-.69-4.35-4.5-7.62-8.89-7.62"/>
    <path class="cls-1" d="m201.84,104.05c-1.7,3.38-2.84,7.07-3.23,10.99h62.81c-.39-3.92-1.53-7.62-3.23-10.99h-56.36Z"/>
    <path class="cls-1" d="m230.02,149.77c9.59,0,18.19-4.32,23.98-11.1h-47.97c5.79,6.78,14.39,11.1,23.99,11.1"/>
    <path class="cls-3" d="m263.14,360.83c1.12-1.26,2.22-2.53,3.32-3.81-1.09,1.13-2.26,2.18-3.49,3.13l.17.68Z"/>
    <path class="cls-3" d="m266.7,356.75c.98-1.15,1.95-2.3,2.91-3.46h-.03c-.88,1.23-1.85,2.37-2.88,3.46"/>
    <path class="cls-1" d="m201.85,132.35h56.34c1.7-3.37,2.84-7.06,3.23-10.99h-62.81c.39,3.92,1.53,7.62,3.23,10.99"/>
    <path class="cls-1" d="m237.57,302.18l-3.89-5.98c-4.37,1.05-8.58,2.88-12.45,5.46l1.76,6.9c-2.5,1.93-4.73,4.23-6.61,6.86l-6.98-1.47c-2.4,3.96-4.05,8.24-4.93,12.65l6.12,3.64c-.41,3.21-.34,6.41.21,9.52l-5.99,3.89c1.06,4.37,2.87,8.59,5.45,12.44l6.91-1.76c1.1,1.42,2.98,3.42,4.98,5.12,2.98-4.44,5.8-9.02,8.39-13.72-2.75-3.01-4.47-6.98-4.47-11.39,0-9.11,7.18-16.46,16.21-16.83,1.41-5.15,2.42-10.35,2.93-15.59-2.27-.03-5.99-.04-7.65.24"/>
    <path class="cls-3" d="m132.34,400.44c.08-.1.17-.18.25-.28l-.03-.03c-.12.17-.22.31-.22.31"/>
    <path class="cls-3" d="m139.71,393.19c-.19.14-2.49,1.87-.14.12.05-.04.09-.08.14-.12h0Z"/>
    <path class="cls-3" d="m132.53,400.11l.03.03c.4-.56,1.08-1.53-.03-.03"/>
    <path class="cls-1" d="m181.57,393.79s2.43,1.72-.16-.18l3.37-14.23-11.17-4.72-7.78,12.32c-3.41-.54-6.89-.59-10.38-.08l-7.72-12.47-11.21,4.53,3.18,14.24s.03-.03.03-.03c-.01,0-.02.02-.03.03h0c-.06.06-.09.08-.14.12-2.62,1.93-4.96,4.22-6.98,6.85l10.46,9.46c3.78-5.44,10.07-9.01,17.21-9.01s13.41,3.55,17.19,8.97l10.44-9.44c-1.88-2.38-3.96-4.52-6.31-6.37"/>
    <path class="cls-3" d="m194.97,417c.43,3,0,0,0,0h0Z"/>
    <path class="cls-1" d="m293.74,156.5c6.62-11.1,10.5-24.03,10.5-37.86,0-.18-.02-.36-.02-.55.08-73.57,15.56-114.46,15.56-114.46h-3.6c-31.44,0-62.86,6.9-88.58,19.08C208.1,8.62,184.74,1,160.28,1s-47.79,7.69-67.31,21.76C67.23,10.54,35.76,3.63,4.29,3.63H.68s15.49,40.89,15.57,114.46c0,.18-.02.36-.02.55,0,13.84,3.87,26.76,10.49,37.86-65.44,83.09-2.27,195.91,98.6,262.88,5.04,3.35,10.18,6.58,15.4,9.69,6.39,3.81,12.9,7.44,19.51,10.86h0c6.66-3.44,13.18-7.14,19.61-10.98,5.17-3.08,10.26-6.26,15.26-9.58,20.93-13.9,40.27-29.74,57.15-46.92,3.75-3.82,7.39-7.69,10.89-11.63l-.17-.68c1.23-.95,2.4-2,3.49-3.13.08-.09.16-.18.23-.27,1.03-1.08,2-2.23,2.88-3.46h.03c3.41-4.09,6.67-8.24,9.79-12.43,44.29-59.64,58.21-128.67,14.35-184.36M160.19,9.91c21.02,0,41.15,6.11,58.34,17.44-1.46.81-3.01,1.56-4.42,2.41-25.29,15.17-45.41,36.94-53.97,63.06-8.56-26.12-28.68-47.89-53.97-63.06-1.36-.81-2.85-1.53-4.24-2.31,17.22-11.33,37.41-17.54,58.26-17.54m17.77,214.53c-2.35,3.56-5.86,6.48-9.83,8.07,0-.02,0-.05-.01-.07-5.29,2.07-10.54,2.07-15.74,0,0,.02,0,.04-.01.06-5.29-2.13-9.76-6.61-11.89-11.9.02,0,.05,0,.07-.01-.01-.03-.02-.06-.03-.09,6.25-1.33,12.82-2.07,19.71-2.07s13.49.74,19.74,2.07h.02s-.02.07-.03.1c.02,0,.04,0,.06.01-.53,1.31-1.29,2.64-2.07,3.81.32-.47-.27.42,0,0m-6.62-29.82c-5.66,6.05-11.13,10.13-11.13,10.13,0,0-5.44-4.06-11.07-10.1-6.06-6.49-12.34-15.28-12.34-23.86l3.39-4.1,20.05-24.26,20.08,24.28,3.37,4.07c0,8.57-6.28,17.33-12.34,23.82m-103.05-20.51l-5.21-2.29c-1.73-.77-2.54-2.82-1.76-4.56l2.28-5.01c.22-.51.57-.91.98-1.24-3.2-1.89-6.1-4.09-8.7-6.51-.21.48-.5.93-.93,1.28l-4.26,3.54c-1.47,1.21-3.68,1.03-4.91-.43l-3.66-4.32c-1.23-1.46-1.02-3.63.44-4.87l4.26-3.53c.43-.36.92-.55,1.43-.67-2-3.04-3.69-6.25-4.99-9.6-.4.31-.83.57-1.36.7l-5.4,1.34c-1.85.46-3.75-.68-4.22-2.53l-1.37-5.46c-.46-1.85.68-3.73,2.55-4.18l5.39-1.33c.51-.14,1.04-.1,1.54,0-.47-3.56-.56-7.17-.25-10.76-.48.11-.97.14-1.49.04l-5.42-1.15c-1.89-.38-3.08-2.25-2.69-4.09l1.17-5.52c.4-1.85,2.27-3.04,4.14-2.65l5.44,1.15c.47.09.89.28,1.27.55,1.04-3.09,2.41-6.12,4.12-9.04.13-.22.28-.42.4-.64-.42-.11-.83-.31-1.21-.61l-4.39-3.39c-1.51-1.17-1.77-3.36-.59-4.85l3.51-4.44c1.17-1.5,3.37-1.76,4.87-.59l4.39,3.39c.35.28.64.62.86,1,2.55-2.57,5.33-4.83,8.32-6.76-.31-.29-.59-.61-.78-1l-2.44-4.95c-.83-1.7-.1-3.79,1.62-4.62l5.1-2.47c1.73-.84,3.82-.11,4.66,1.59l2.43,4.95c.19.37.28.77.31,1.17,3.39-1.18,6.92-1.99,10.49-2.43-.13-.36-.23-.75-.23-1.16v-5.5c0-1.9,1.58-3.46,3.49-3.46h5.67c1.93,0,3.49,1.56,3.49,3.46v5.5c0,.38-.1.73-.22,1.07,2.38.28,4.76.77,7.11,1.41.03-.38.06-.74.21-1.1l2.08-5.11c.71-1.76,2.77-2.62,4.55-1.9l5.28,2.11c1.76.71,2.62,2.73,1.91,4.48l-2.09,5.11c-.14.35-.38.64-.61.91.3.16.61.28.9.45,2.89,1.66,5.53,3.56,7.95,5.64.17-.3.37-.6.64-.86l4.12-3.68c1.43-1.27,3.65-1.15,4.91.26l3.83,4.19c1.28,1.41,1.15,3.6-.26,4.86l-4.13,3.69c-.3.25-.62.41-.97.56,2.08,2.94,3.82,6.07,5.2,9.35.31-.22.63-.41,1.01-.52l5.35-1.53c1.83-.52,3.77.55,4.31,2.38l1.58,5.41c.52,1.82-.57,3.74-2.4,4.27l-5.34,1.52c-.39.11-.77.11-1.15.09.57,3.5.71,7.07.51,10.66.39-.08.79-.11,1.21-.04l5.48.96c1.88.34,3.15,2.14,2.82,4.01l-.97,5.55c-.35,1.86-2.17,3.11-4.06,2.79l-5.46-.96c-.42-.07-.8-.24-1.16-.45-1.04,3.34-2.44,6.64-4.24,9.81.41.1.81.27,1.18.54l4.49,3.22c1.55,1.12,1.9,3.29.78,4.82l-3.35,4.56c-1.12,1.54-3.32,1.88-4.86.76l-4.5-3.23c-.38-.28-.68-.62-.92-.99-2.49,2.63-5.24,4.95-8.17,6.96.36.28.68.64.91,1.09l2.62,4.85c.89,1.67.23,3.79-1.45,4.67l-5.02,2.64c-1.69.89-3.8.24-4.71-1.43l-2.62-4.87c-.23-.43-.36-.9-.38-1.37-3.39,1.28-6.9,2.19-10.48,2.73.23.45.38.91.39,1.44l.2,5.51c.07,1.88-1.45,3.49-3.37,3.55l-5.66.22c-1.92.06-3.53-1.44-3.61-3.34l-.2-5.51c-.01-.52.13-1.03.34-1.49-3.6-.31-7.17-.97-10.7-2.07.02.5-.04,1.02-.26,1.52l-2.26,5.03c-.78,1.73-2.86,2.52-4.6,1.75m126.69,242.9h0s.43,3,0,0m50.25-115.06c-.51,5.24-1.52,10.44-2.93,15.59-2.66,9.68-6.75,19.16-11.73,28.21-2.58,4.7-5.41,9.28-8.39,13.72-10.26,15.29-22.4,28.92-33.2,39.72l-1.09.98-10.44,9.44-.06.05c-9.97,9.06-16.99,14.35-17.15,14.47l.03.02h-.06l.03-.02c-.17-.12-7.18-5.42-17.15-14.47l-.03-.02-10.46-9.46c-.08.1-.17.18-.25.28,0,0,.1-.14.22-.31l-.03-.03-1.03-.94c-24.8-24.78-56.64-64.49-56.64-105.04,0-23.95,14.63-48.59,38.69-62.99,1.21,3.06,2.69,6.04,4.51,8.86h.01s0,0,0,0l8.87-2.13c2.42,3.23,5.33,6.12,8.67,8.56l-2,8.89h0s0,0,0,0c.46.29.94.52,1.4.79.85.49,1.69,1,2.55,1.44.2.1.42.18.62.28,1.17.57,2.35,1.11,3.54,1.59h.02s0,0,0,0c2.6,1.03,5.26,1.84,7.96,2.43l4.77-7.78c4.09.58,8.2.53,12.18-.09l4.87,7.71c5.61-1.28,11.04-3.54,16.01-6.76h0s0-.01,0-.01l-2.13-8.87c3.23-2.42,6.12-5.33,8.56-8.67l8.89,2h0s0,0,0,0c.28-.45.51-.92.77-1.37.5-.85,1.01-1.7,1.45-2.58.1-.2.18-.4.27-.6.57-1.17,1.12-2.36,1.59-3.56,0,0,0-.02.01-.03h0s.01-.04.02-.06c24.02,14.4,38.63,39.01,38.63,62.95,0,2.6-.14,5.21-.39,7.8m43.77-170.57c-.34,1.86-2.17,3.12-4.06,2.79l-5.46-.96c-.42-.07-.8-.24-1.17-.46-1.04,3.34-2.44,6.64-4.24,9.81.41.1.82.27,1.18.54l4.5,3.21c1.55,1.12,1.9,3.3.77,4.82l-3.34,4.57c-1.12,1.54-3.32,1.87-4.87.75l-4.5-3.23c-.38-.28-.68-.62-.92-1-2.49,2.64-5.24,4.96-8.17,6.97.36.28.68.64.92,1.09l2.61,4.85c.89,1.68.23,3.79-1.45,4.68l-5.01,2.64c-1.7.89-3.81.24-4.71-1.43l-2.61-4.87c-.24-.44-.36-.9-.38-1.37-3.39,1.28-6.9,2.19-10.48,2.72.22.44.37.91.39,1.44l.2,5.51c.07,1.88-1.45,3.49-3.37,3.55l-5.66.22c-1.92.06-3.54-1.44-3.6-3.34l-.2-5.51c-.02-.53.12-1.03.33-1.49-3.6-.31-7.18-.97-10.7-2.07.02.51-.04,1.02-.26,1.52l-2.26,5.03c-.78,1.73-2.86,2.52-4.6,1.75l-5.21-2.29c-1.73-.78-2.54-2.83-1.76-4.56l2.28-5.02c.22-.5.57-.91.97-1.23-3.2-1.89-6.1-4.08-8.7-6.51-.21.47-.5.92-.93,1.28l-4.26,3.54c-1.47,1.21-3.68,1.03-4.91-.43l-3.66-4.32c-1.23-1.46-1.03-3.63.44-4.86l4.26-3.54c.43-.35.92-.55,1.43-.67-2.01-3.04-3.7-6.24-4.99-9.6-.4.32-.83.57-1.36.7l-5.4,1.34c-1.85.46-3.75-.68-4.22-2.53l-1.37-5.46c-.46-1.84.68-3.73,2.55-4.18l5.39-1.34c.51-.13,1.04-.11,1.54,0-.47-3.56-.56-7.16-.25-10.76-.48.11-.97.14-1.49.03l-5.42-1.15c-1.89-.39-3.08-2.25-2.69-4.1l1.17-5.52c.39-1.86,2.27-3.05,4.14-2.65l5.44,1.14c.47.09.89.28,1.27.55,1.04-3.08,2.41-6.11,4.11-9.04.13-.22.28-.41.4-.63-.42-.12-.83-.31-1.21-.61l-4.39-3.38c-1.51-1.17-1.77-3.36-.59-4.86l3.51-4.43c1.17-1.5,3.38-1.76,4.87-.59l4.39,3.39c.35.29.64.62.86,1,2.55-2.57,5.33-4.82,8.32-6.76-.31-.29-.59-.6-.78-1l-2.44-4.95c-.83-1.7-.11-3.79,1.62-4.62l5.1-2.47c1.73-.83,3.83-.11,4.66,1.59l2.43,4.95c.19.38.28.77.31,1.17,3.39-1.18,6.92-1.98,10.49-2.43-.14-.35-.24-.75-.24-1.15v-5.5c0-1.91,1.57-3.46,3.49-3.46h5.68c1.93,0,3.49,1.55,3.49,3.46v5.5c0,.38-.1.73-.22,1.07,2.38.28,4.76.76,7.1,1.4.03-.38.06-.74.22-1.1l2.07-5.11c.72-1.75,2.77-2.61,4.55-1.89l5.27,2.1c1.76.72,2.62,2.73,1.91,4.49l-2.09,5.11c-.14.35-.38.64-.61.91.3.16.6.28.9.45,2.88,1.66,5.53,3.56,7.95,5.64.17-.31.37-.61.64-.86l4.13-3.68c1.42-1.27,3.65-1.15,4.91.26l3.83,4.19c1.28,1.41,1.15,3.59-.27,4.86l-4.13,3.69c-.3.25-.63.41-.98.56,2.08,2.94,3.82,6.06,5.2,9.35.31-.21.63-.41,1.02-.52l5.35-1.53c1.84-.52,3.78.56,4.31,2.38l1.57,5.41c.52,1.82-.57,3.74-2.39,4.26l-5.35,1.53c-.39.11-.77.11-1.15.09.57,3.5.72,7.07.52,10.66.39-.08.78-.1,1.21-.04l5.48.96c1.88.34,3.15,2.14,2.81,4.02l-.97,5.55Z"/>
  </g>
</svg>